# xmcd
#
# Track frame offsets:
#	150
#	20947
#	63540
#	83835
#	107075
#	124395
#	147035
#	166675
#	183520
#	205752
#	226287
#	244100
#
# Disc length: 3511 seconds
#
# Revision: 0
# Processed by: cddbd v1.5.1PL2 Copyright (c) Steve Scherf et al.
# Submitted via: EasyCDDAExtractor 9.0.0.1
#
DISCID=a40db50c
DTITLE=charanga 76 - hansel y raul cantan exitos
DYEAR=1987
DGENRE=salsa
TTITLE0=ku-ku-cha-ku-cha
TTITLE1=no nos paran
TTITLE2=rosa
TTITLE3=regresaras
TTITLE4=juan cabeza de pan
TTITLE5=whanda
TTITLE6=te vas con el viento
TTITLE7=no hay quien te quiera como yo
TTITLE8=cu-ba is cuba
TTITLE9=salsa quisqueya
TTITLE10=quiero mas
TTITLE11=si tu supieras
EXTD=
EXTT0=
EXTT1=
EXTT2=
EXTT3=
EXTT4=
EXTT5=
EXTT6=
EXTT7=
EXTT8=
EXTT9=
EXTT10=
EXTT11=
PLAYORDER=
